<svg version="1.1" xmlns="http://www.w3.org/2000/svg" width="50px" height="50px" viewBox="0,0,256,256">
    <defs>
        <!-- 定义线性渐变 -->
        <linearGradient id="paint0_linear" x1="2.12767" y1="1" x2="30.7018" y2="17.5237" gradientUnits="userSpaceOnUse">
            <stop offset="0.259336" stop-color="#FFDB6E"/>
            <stop offset="1" stop-color="#FFBC5E"/>
        </linearGradient>
        <linearGradient id="paint1_linear" x1="1.59976" y1="8.08974e-07" x2="31.8368" y2="17.6727" gradientUnits="userSpaceOnUse">
            <stop offset="0.259336" stop-color="#FFDB6E"/>
            <stop offset="1" stop-color="#FFBC5E"/>
        </linearGradient>
    </defs>
    <g transform="scale(5.12,5.12)">
        <path d="M12,2c-3.30163,0 -6,2.69837 -6,6v34.41797c0,3.17393 2.83231,5.58203 6,5.58203h32v-2h-32c-2.15831,0 -4,-1.62197 -4,-3.58203c0,-1.96007 1.80014,-3.41797 4,-3.41797h32v-37zM12,4h30v33h-30c-1.49307,0 -2.90764,0.5376 -4,1.41797v-30.41797c0,-2.22037 1.77963,-4 4,-4zM26,9c-1.94682,0 -3.55356,1.05039 -4.64453,2.49023c-0.59087,-0.22746 -1.1721,-0.49023 -1.85547,-0.49023c-3.02558,0 -5.5,2.47442 -5.5,5.5c0,2.11431 1.24157,3.89373 3,4.80859v5.52344c-0.01785,0.10799 -0.01785,0.21818 0,0.32617v3.8418c0.00006,0.55226 0.44774,0.99994 1,1h16c0.55226,-0.00006 0.99994,-0.44774 1,-1v-3.83203c0.01785,-0.10799 0.01785,-0.21818 0,-0.32617v-5.5332c1.75843,-0.91486 3,-2.69429 3,-4.80859c0,-3.02558 -2.47442,-5.5 -5.5,-5.5c-0.68337,0 -1.2646,0.26278 -1.85547,0.49023c-1.09097,-1.43984 -2.69771,-2.49023 -4.64453,-2.49023zM26,11c1.50344,0 2.78579,0.83178 3.47461,2.06055c0.26804,0.47908 0.87214,0.65255 1.35352,0.38867c0.51572,-0.28356 1.07286,-0.44922 1.67188,-0.44922c1.94442,0 3.5,1.55558 3.5,3.5c0,1.52792 -0.97494,2.79888 -2.33398,3.28125c-0.39946,0.14157 -0.66632,0.51955 -0.66602,0.94336v5.27539h-14v-5.27539c0.0003,-0.42381 -0.26655,-0.80179 -0.66602,-0.94336c-1.35905,-0.48237 -2.33398,-1.75333 -2.33398,-3.28125c0,-1.94442 1.55558,-3.5 3.5,-3.5c0.59901,0 1.15616,0.16565 1.67188,0.44922c0.48138,0.26388 1.08548,0.0904 1.35352,-0.38867c0.68882,-1.22877 1.97117,-2.06055 3.47461,-2.06055zM21.98438,19.98633c-0.55152,0.00862 -0.99193,0.46214 -0.98437,1.01367v2c-0.0051,0.36064 0.18438,0.69608 0.49587,0.87789c0.3115,0.18181 0.69676,0.18181 1.00825,0c0.3115,-0.18181 0.50097,-0.51725 0.49587,-0.87789v-2c0.0037,-0.2703 -0.10218,-0.53059 -0.29351,-0.72155c-0.19133,-0.19097 -0.45182,-0.29634 -0.72212,-0.29212zM25.98438,19.98633c-0.55152,0.00862 -0.99193,0.46214 -0.98437,1.01367v2c-0.0051,0.36064 0.18438,0.69608 0.49587,0.87789c0.3115,0.18181 0.69676,0.18181 1.00825,0c0.3115,-0.18181 0.50097,-0.51725 0.49587,-0.87789v-2c0.0037,-0.2703 -0.10218,-0.53059 -0.29351,-0.72155c-0.19133,-0.19097 -0.45182,-0.29634 -0.72212,-0.29212zM29.98438,19.98633c-0.55152,0.00862 -0.99193,0.46214 -0.98437,1.01367v2c-0.0051,0.36064 0.18438,0.69608 0.49587,0.87789c0.3115,0.18181 0.69676,0.18181 1.00825,0c0.3115,-0.18181 0.50097,-0.51725 0.49587,-0.87789v-2c0.0037,-0.2703 -0.10218,-0.53059 -0.29351,-0.72155c-0.19133,-0.19097 -0.45182,-0.29634 -0.72212,-0.29212zM19,28h14v2h-14z" fill="url(#paint0_linear)"/>
    </g>
</svg>